<svg xmlns="http://www.w3.org/2000/svg" viewBox="0 0 64 64" role="img" data-catalog-id="jupyterlab"><title>JupyterLab fallback icon</title><defs><linearGradient id="g" x1="8" y1="5" x2="56" y2="59" gradientUnits="userSpaceOnUse"><stop stop-color="#3b2a2c"/><stop offset="1" stop-color="#211719"/></linearGradient><linearGradient id="r" x1="32" y1="4" x2="32" y2="60" gradientUnits="userSpaceOnUse"><stop stop-color="#FFF7EF" stop-opacity=".18"/><stop offset="1" stop-color="#FFF7EF" stop-opacity=".04"/></linearGradient></defs><rect x="2" y="2" width="60" height="60" rx="15" fill="url(#g)"/><rect x="2.5" y="2.5" width="59" height="59" rx="14.5" fill="none" stroke="url(#r)"/><path d="M137 -10Q99 -10 64.0 -4.5Q29 1 13 9V113Q33 105 61.0 99.5Q89 94 118 94Q180 94 209.0 117.0Q238 140 238 195V720H368V189Q368 89 309.5 39.5Q251 -10 137 -10Z" transform="translate(15.396 43.185) scale(0.03151 -0.03151)" fill="#FFF7EF"/><path d="M351 -10Q205 -10 130.0 73.0Q55 156 55 311V720H185V292Q185 193 229.0 144.5Q273 96 352 96Q431 96 475.0 144.5Q519 193 519 291V720H649V310Q649 155 573.5 72.5Q498 -10 351 -10Z" transform="translate(27.747 43.185) scale(0.03151 -0.03151)" fill="#FFF7EF"/><rect x="48" y="10" width="6" height="6" rx="2" fill="#F26419"/></svg>
