<svg xmlns="http://www.w3.org/2000/svg" viewBox="0 0 64 64" role="img" data-catalog-id="matter-server"><title>Matter Server fallback icon</title><defs><linearGradient id="g" x1="8" y1="5" x2="56" y2="59" gradientUnits="userSpaceOnUse"><stop stop-color="#293532"/><stop offset="1" stop-color="#151c1a"/></linearGradient><linearGradient id="r" x1="32" y1="4" x2="32" y2="60" gradientUnits="userSpaceOnUse"><stop stop-color="#FFF7EF" stop-opacity=".18"/><stop offset="1" stop-color="#FFF7EF" stop-opacity=".04"/></linearGradient></defs><rect x="2" y="2" width="60" height="60" rx="15" fill="url(#g)"/><rect x="2.5" y="2.5" width="59" height="59" rx="14.5" fill="none" stroke="url(#r)"/><path d="M62 0V720H264L449 138L633 720H836V0H708V610L515 0H376L184 607V0Z" transform="translate(10.785 41.985) scale(0.02766 -0.02766)" fill="#FFF7EF"/><path d="M341 -9Q205 -9 124.5 53.0Q44 115 30 230H155Q164 164 213.5 127.5Q263 91 345 91Q413 91 448.0 115.5Q483 140 483 184Q483 223 461.0 247.0Q439 271 387 286L257 325Q158 355 111.5 403.5Q65 452 65 527Q65 589 97.5 635.0Q130 681 188.0 706.0Q246 731 324 731Q444 731 515.5 672.5Q587 614 597 514H472Q461 574 422.0 602.5Q383 631 317 631Q258 631 224.5 608.0Q191 585 191 545Q191 512 211.5 489.0Q232 466 288 449L420 409Q519 380 564.0 330.0Q609 280 609 203Q609 101 538.5 46.0Q468 -9 341 -9Z" transform="translate(34.655 41.985) scale(0.02766 -0.02766)" fill="#FFF7EF"/><rect x="48" y="10" width="6" height="6" rx="2" fill="#F26419"/></svg>
